<svg version="1" xmlns="http://www.w3.org/2000/svg" width="933.333" height="933.333" viewBox="0 0 700.000000 700.000000"><path d="M341.8 16.5c-.2.1-6.1.5-13.3.9-66 3.3-133 29.2-187.5 72.4-12.2 9.8-41.4 39-51.2 51.2-38.1 48-61.9 103.5-70.2 164-2.4 17.3-3 26.5-2.9 47.5.3 75.4 25.3 146 73 206 18 22.7 49.9 52.1 74.1 68.4 44.8 30 94.9 48.3 149.2 54.7 15.3 1.8 47.8 2.3 63 1 82.5-7 157.6-42.5 214.5-101.6 48.1-49.9 79.5-113.9 89.5-182.8 14.9-102.4-18-204.9-89.7-279.2-56.1-58.2-129-93.4-208.8-101-10-.9-39.1-2-39.7-1.5z"/></svg>